<?xml version="1.0" encoding="UTF-8"?>
<svg width="205px" height="15px" viewBox="0 0 205 15" version="1.1" xmlns="http://www.w3.org/2000/svg" xmlns:xlink="http://www.w3.org/1999/xlink">
    <title>poparazzi</title>
    <g id="Page-1" stroke="none" stroke-width="1" fill="none" fill-rule="evenodd">
        <g id="POP-Landing" transform="translate(-618.000000, -212.000000)" fill="#FFFFFF" fill-rule="nonzero">
            <path d="M627.94,227 L628.64,223.06 L638.26,223.06 C639.033333,223.06 639.66,222.856667 640.14,222.45 C640.62,222.043333 640.933333,221.446667 641.08,220.66 L641.08,220.66 L642.02,215.4 C642.06,215.173333 642.08,214.973333 642.08,214.8 C642.08,214.213333 641.906667,213.766667 641.56,213.46 C641.213333,213.153333 640.706667,213 640.04,213 L640.04,213 L621.32,213 L618.84,227 L627.94,227 Z M630.8,218.98 L629.36,218.98 L629.7,217.1 L631.14,217.1 C631.473333,217.1 631.64,217.246667 631.64,217.54 C631.64,217.606667 631.633333,217.66 631.62,217.7 L631.62,217.7 L631.5,218.38 C631.473333,218.566667 631.396667,218.713333 631.27,218.82 C631.143333,218.926667 630.986667,218.98 630.8,218.98 L630.8,218.98 Z M660.52,227 C661.133333,227 661.68,226.84 662.16,226.52 C662.64,226.2 662.933333,225.746667 663.04,225.16 L663.04,225.16 L664.86,214.82 C664.873333,214.74 664.88,214.626667 664.88,214.48 C664.88,214 664.706667,213.633333 664.36,213.38 C664.013333,213.126667 663.56,213 663,213 L663,213 L646.08,213 C645.453333,213 644.906667,213.156667 644.44,213.47 C643.973333,213.783333 643.68,214.24 643.56,214.84 L643.56,214.84 L641.74,225.18 C641.726667,225.26 641.72,225.373333 641.72,225.52 C641.72,226 641.893333,226.366667 642.24,226.62 C642.586667,226.873333 643.04,227 643.6,227 L643.6,227 L660.52,227 Z M653.34,222.92 L652.22,222.92 C651.886667,222.92 651.72,222.773333 651.72,222.48 C651.72,222.413333 651.726667,222.36 651.74,222.32 L651.74,222.32 L652.54,217.7 C652.58,217.513333 652.663333,217.366667 652.79,217.26 C652.916667,217.153333 653.073333,217.1 653.26,217.1 L653.26,217.1 L654.38,217.1 C654.713333,217.1 654.88,217.246667 654.88,217.54 C654.88,217.606667 654.873333,217.66 654.86,217.7 L654.86,217.7 L654.06,222.32 C654.02,222.506667 653.936667,222.653333 653.81,222.76 C653.683333,222.866667 653.526667,222.92 653.34,222.92 L653.34,222.92 Z M673.26,227 L673.96,223.06 L683.58,223.06 C684.353333,223.06 684.98,222.856667 685.46,222.45 C685.94,222.043333 686.253333,221.446667 686.4,220.66 L686.4,220.66 L687.34,215.4 C687.38,215.173333 687.4,214.973333 687.4,214.8 C687.4,214.213333 687.226667,213.766667 686.88,213.46 C686.533333,213.153333 686.026667,213 685.36,213 L685.36,213 L666.64,213 L664.16,227 L673.26,227 Z M676.12,218.98 L674.68,218.98 L675.02,217.1 L676.46,217.1 C676.793333,217.1 676.96,217.246667 676.96,217.54 C676.96,217.606667 676.953333,217.66 676.94,217.7 L676.94,217.7 L676.82,218.38 C676.793333,218.566667 676.716667,218.713333 676.59,218.82 C676.463333,218.926667 676.306667,218.98 676.12,218.98 L676.12,218.98 Z M695.84,227 L697.28,224.52 L702.86,224.52 L703.7,227 L712.96,227 L709.2,212.96 L695.46,212.96 L686.38,227 L695.84,227 Z M702.4,220.98 L699.02,220.98 L701.48,217.04 L701.64,217.04 L702.4,220.98 Z M723.14,227 L724.04,221.88 L725.74,221.88 C725.926667,221.88 726.063333,221.933333 726.15,222.04 C726.236667,222.146667 726.266667,222.293333 726.24,222.48 L726.24,222.48 L725.44,227 L735.32,227 L736.2,222 C736.24,221.773333 736.26,221.573333 736.26,221.4 C736.26,220.906667 736.093333,220.453333 735.76,220.04 C736.093333,219.76 736.35,219.466667 736.53,219.16 C736.71,218.853333 736.833333,218.493333 736.9,218.08 L736.9,218.08 L737.38,215.4 C737.42,215.173333 737.44,214.973333 737.44,214.8 C737.44,214.213333 737.266667,213.766667 736.92,213.46 C736.573333,213.153333 736.066667,213 735.4,213 L735.4,213 L716.52,213 L714.04,227 L723.14,227 Z M726.26,219 L724.56,219 L724.9,217.1 L726.6,217.1 C726.933333,217.1 727.1,217.246667 727.1,217.54 C727.1,217.606667 727.093333,217.66 727.08,217.7 L727.08,217.7 L726.96,218.4 C726.933333,218.586667 726.856667,218.733333 726.73,218.84 C726.603333,218.946667 726.446667,219 726.26,219 L726.26,219 Z M745.88,227 L747.32,224.52 L752.9,224.52 L753.74,227 L763,227 L759.24,212.96 L745.5,212.96 L736.42,227 L745.88,227 Z M752.44,220.98 L749.06,220.98 L751.52,217.04 L751.68,217.04 L752.44,220.98 Z M785.36,227 L786.08,222.92 L776.5,222.92 L787.54,217 L788.24,213 L766.56,213 L765.84,217 L776.74,217 L764.8,222.92 L764.08,227 L785.36,227 Z M808.5,227 L809.22,222.92 L799.64,222.92 L810.68,217 L811.38,213 L789.7,213 L788.98,217 L799.88,217 L787.94,222.92 L787.22,227 L808.5,227 Z M819.76,227 L822.22,213 L812.84,213 L810.36,227 L819.76,227 Z" id="poparazzi"></path>
        </g>
    </g>
</svg>